# File created by Blade
# Date/Time:  Wed Apr 08 17:31:45 2015
#---------------------------------------------------------
:version 1.10
:name HOM
:units
  mass 1.0
  length 1.000000
  angle deg
:documentation
     Acclaim Skeleton File
:root
   axis xyz
   order TX TY TZ RX RY RZ
   position 0.000000 0.000000 0.000000
   orientation 0 0 0
:bonedata
   begin
      id 1
      name Spine_dum
      direction 0.000000 1.000000 0.000000
      length 5.893853
      axis 0.0 0.0 0.0 xyz
   end
   begin
      id 2
      name LeftUpLeg_dum
      direction 1.000000 0.000000 0.000000
      length 3.697939
      axis 0.0 0.0 0.0 xyz
   end
   begin
      id 3
      name RightUpLeg_dum
      direction -1.000000 0.000000 0.000000
      length 3.697939
      axis 0.0 0.0 0.0 xyz
   end
   begin
      id 4
      name Spine
      direction 0.000000 1.000000 0.000000
      length 0.000000
      axis 0.0 0.0 0.0 xyz
      dof rx ry rz
   end
   begin
      id 5
      name Spine_dum1
      direction 0.000000 1.000000 0.000000
      length 16.447146
      axis 0.0 0.0 0.0 xyz
   end
   begin
      id 6
      name Spine_dum2
      direction 0.000000 1.000000 0.000000
      length 10.900383
      axis 0.0 0.0 0.0 xyz
   end
   begin
      id 7
      name Spine_dum3
      direction 0.000000 1.000000 0.000000
      length 10.900383
      axis 0.0 0.0 0.0 xyz
   end
   begin
      id 8
      name Head
      direction 0.000000 1.000000 0.000000
      length 4.527550
      axis 0.0 0.0 0.0 xyz
      dof rx ry rz
   end
   begin
      id 9
      name LeftShoulder
      direction 1.000000 0.000000 0.000000
      length 8.219464
      axis 0.0 0.0 -90.0 xyz
      dof rx ry rz
   end
   begin
      id 10
      name LeftArm
      direction 1.000000 0.000000 0.000000
      length 11.094937
      axis 0.0 0.0 -90.0 xyz
      dof rx ry rz
   end
   begin
      id 11
      name LeftForeArm
      direction 1.000000 0.000000 0.000000
      length 9.103875
      axis 0.0 0.0 -90.0 xyz
      dof ry rz rx
   end
   begin
      id 12
      name LeftHand
      direction 0.000000 0.000000 0.000000
      length 0.000000
      axis 0.0 0.0 -90.0 xyz
      dof rx ry rz
   end
   begin
      id 13
      name LeftHand_dum1
      direction 0.000000 0.000000 0.000000
      length 0.000000
      axis 0.0 0.0 -90.0 xyz
   end
   begin
      id 14
      name LeftHand_dum2
      direction 1.000000 0.000000 0.000000
      length 3.937000
      axis 0.0 0.0 -90.0 xyz
   end
   begin
      id 15
      name LeftHandThumb1
      direction 0.000000 0.000000 1.000000
      length 3.937000
      axis 0.0 0.0 -90.0 xyz
      dof rx rz ry
   end
   begin
      id 16
      name RightShoulder
      direction -1.000000 0.000000 0.000000
      length 8.219464
      axis 0.0 0.0 90.0 xyz
      dof rx ry rz
   end
   begin
      id 17
      name RightArm
      direction -1.000000 0.000000 0.000000
      length 11.094937
      axis 0.0 0.0 90.0 xyz
      dof rx ry rz
   end
   begin
      id 18
      name RightForeArm
      direction -1.000000 0.000000 0.000000
      length 9.103875
      axis 0.0 0.0 90.0 xyz
      dof ry rz rx
   end
   begin
      id 19
      name RightHand
      direction 0.000000 0.000000 0.000000
      length 0.000000
      axis 0.0 0.0 90.0 xyz
      dof rx ry rz
   end
   begin
      id 20
      name RightHand_dum1
      direction 0.000000 0.000000 0.000000
      length 0.000000
      axis 0.0 0.0 90.0 xyz
   end
   begin
      id 21
      name RightHand_dum2
      direction -1.000000 0.000000 0.000000
      length 3.937000
      axis 0.0 0.0 90.0 xyz
   end
   begin
      id 22
      name RightHandThumb1
      direction 0.000000 0.000000 1.000000
      length 3.937000
      axis 0.0 0.0 90.0 xyz
      dof rx rz ry
   end
   begin
      id 23
      name LeftUpLeg
      direction 0.000000 -1.000000 0.000000
      length 16.181467
      axis 0.0 0.0 0.0 xyz
      dof rx ry rz
   end
   begin
      id 24
      name LeftLeg
      direction 0.000000 -1.000000 0.000000
      length 16.501392
      axis 0.0 0.0 0.0 xyz
      dof rx ry rz
   end
   begin
      id 25
      name LeftFoot
      direction 0.000000 -0.258819 0.965926
      length 6.408245
      axis 15.0 0.0 0.0 xyz
      dof rx ry rz
   end
   begin
      id 26
      name LeftToeBase
      direction 0.000000 0.000000 1.000000
      length 2.952750
      axis 0.0 0.0 0.0 xyz
      dof rx ry rz
   end
   begin
      id 27
      name RightUpLeg
      direction 0.000000 -1.000000 0.000000
      length 16.181467
      axis 0.0 0.0 0.0 xyz
      dof rx ry rz
   end
   begin
      id 28
      name RightLeg
      direction 0.000000 -1.000000 0.000000
      length 16.501392
      axis 0.0 0.0 0.0 xyz
      dof rx ry rz
   end
   begin
      id 29
      name RightFoot
      direction 0.000000 -0.258819 0.965926
      length 6.408245
      axis 15.0 0.0 0.0 xyz
      dof rx ry rz
   end
   begin
      id 30
      name RightToeBase
      direction 0.000000 0.000000 1.000000
      length 2.952750
      axis 0.0 0.0 0.0 xyz
      dof rx ry rz
   end
:hierarchy
   begin
      root Spine_dum LeftUpLeg_dum RightUpLeg_dum
      Spine_dum Spine
      LeftUpLeg_dum LeftUpLeg
      RightUpLeg_dum RightUpLeg
      Spine Spine_dum1 Spine_dum2 Spine_dum3
      Spine_dum1 Head
      Spine_dum2 LeftShoulder
      Spine_dum3 RightShoulder
      LeftShoulder LeftArm
      LeftArm LeftForeArm
      LeftForeArm LeftHand
      LeftHand LeftHand_dum1 LeftHand_dum2
      LeftHand_dum1 LeftHandThumb1
      RightShoulder RightArm
      RightArm RightForeArm
      RightForeArm RightHand
      RightHand RightHand_dum1 RightHand_dum2
      RightHand_dum1 RightHandThumb1
      LeftUpLeg LeftLeg
      LeftLeg LeftFoot
      LeftFoot LeftToeBase
      RightUpLeg RightLeg
      RightLeg RightFoot
      RightFoot RightToeBase
   end

# File created by Blade
# Date/Time:  Wed Apr 08 17:31:39 2015
# Frame Rate: 120.000 fps
#------------------------------------------------------
:FULLY-SPECIFIED
:DEGREES
184
root 5.767205 34.802594 1.544430 -186.130952 -86.981143 189.190754
Spine 19.452394 5.821462 -2.660594
Head 2.447788 10.611294 2.816717
LeftShoulder -6.503883 18.064817 18.458797
LeftArm 20.551637 18.189307 -80.465765
LeftForeArm 18.910468 -0.000000 26.321401
LeftHand -11.122727 -0.000000 -8.136228
LeftHandThumb1 -26.253704 0.000000 33.147579
RightShoulder -23.328793 -47.528649 1.241316
RightArm 64.336535 -9.218238 41.740214
RightForeArm -1.453501 -0.000000 38.088137
RightHand -0.354348 0.000000 9.142596
RightHandThumb1 -24.326973 -0.000000 -32.862282
LeftUpLeg -24.322854 15.214841 2.081229
LeftLeg 36.993608 -0.000000 -0.000000
LeftFoot -16.450923 6.849844 -7.664704
LeftToeBase 6.645289 -0.000000 -0.000000
RightUpLeg -20.059064 -7.510189 -9.808046
RightLeg 37.105196 -0.000000 -0.000000
RightFoot -20.718050 6.218949 17.347647
RightToeBase 3.708524 -0.000000 -0.000000
185
root 5.593404 34.777596 1.581254 -191.082982 -87.014855 190.915434
Spine 23.604656 5.684884 -2.215269
Head 1.537085 10.772207 2.538471
LeftShoulder -6.410746 17.473518 18.630782
LeftArm 20.547217 17.853082 -80.496311
LeftForeArm 18.893283 -0.000000 26.276157
LeftHand -11.216002 0.000000 -8.012576
LeftHandThumb1 -26.253704 0.000000 33.147579
RightShoulder -22.832595 -46.930512 0.615570
RightArm 64.284195 -8.898435 42.144864
RightForeArm -1.356695 0.000000 37.955466
RightHand -0.281139 -0.000000 8.982431
RightHandThumb1 -24.326973 -0.000000 -32.862282
LeftUpLeg -20.752457 15.015616 3.019417
LeftLeg 37.180841 -0.000000 -0.000000
LeftFoot -17.033604 6.893326 -7.532639
LeftToeBase 6.722585 -0.000000 -0.000000
RightUpLeg -16.527873 -7.352303 -10.254847
RightLeg 36.504004 -0.000000 -0.000000
RightFoot -21.201150 6.514744 17.058897
RightToeBase 3.274573 -0.000000 -0.000000
186
root 5.146255 34.821117 1.616613 -199.376295 -87.229183 192.171240
Spine 32.024618 5.384657 -1.500398
Head 0.087469 11.008194 2.144754
LeftShoulder -6.333590 16.608441 18.996597
LeftArm 20.638351 17.386991 -80.778775
LeftForeArm 18.839032 0.000000 26.251701
LeftHand -11.178447 0.000000 -8.180526
LeftHandThumb1 -26.253704 0.000000 33.147579
RightShoulder -21.991910 -46.093185 -0.463227
RightArm 64.245454 -8.467265 42.800381
RightForeArm -1.125608 -0.000000 37.913553
RightHand -0.293816 -0.000000 8.848678
RightHandThumb1 -24.326973 -0.000000 -32.862282
LeftUpLeg -12.300656 14.592681 4.965314
LeftLeg 36.448460 -0.000000 -0.000000
LeftFoot -17.723360 6.716600 -7.161474
LeftToeBase 6.855919 -0.000000 -0.000000
RightUpLeg -8.092504 -6.909682 -11.362181
RightLeg 34.728853 -0.000000 -0.000000
RightFoot -21.655209 7.179800 16.716678
RightToeBase 2.853303 -0.000000 -0.000000
187
root 3.616784 35.290810 1.648904 -234.320513 -88.252302 206.360529
Spine 54.689482 4.048051 0.119553
Head -2.086035 11.246463 1.342263
LeftShoulder -6.070557 15.489421 20.873561
LeftArm 20.727949 17.322853 -82.146516
LeftForeArm 18.118912 -0.000000 26.423455
LeftHand -11.089919 -0.000000 -8.503646
LeftHandThumb1 -26.253704 0.000000 33.147579
RightShoulder -20.747044 -45.170510 -3.559238
RightArm 64.553596 -8.622956 44.466098
RightForeArm -0.519543 -0.000000 38.141612
RightHand -0.272174 0.000000 8.787821
RightHandThumb1 -24.326973 -0.000000 -32.862282
LeftUpLeg 14.260829 11.838133 10.572212
LeftLeg 30.914585 -0.000000 -0.000000
LeftFoot -17.323585 5.543305 -6.489900
LeftToeBase 6.582210 -0.000000 -0.000000
RightUpLeg 19.186581 -6.233803 -15.508008
RightLeg 26.571409 -0.000000 -0.000000
RightFoot -19.850000 9.073849 14.813511
RightToeBase 1.472441 -0.000000 -0.000000
188
root 3.047011 35.494917 1.673753 -249.640273 -88.278853 214.019543
Spine 62.711960 3.606601 0.620870
Head -2.354664 11.369188 1.242511
LeftShoulder -5.908434 15.429749 22.054290
LeftArm 20.658745 17.541333 -82.662472
LeftForeArm 17.723298 -0.000000 26.646983
LeftHand -11.063771 -0.000000 -8.737577
LeftHandThumb1 -26.253704 0.000000 33.147579
RightShoulder -20.460092 -45.219026 -4.943742
RightArm 64.765530 -8.754658 45.107185
RightForeArm 0.015444 -0.000000 38.279117
RightHand -0.283178 -0.000000 8.767525
RightHandThumb1 -24.326973 -0.000000 -32.862282
LeftUpLeg 23.931534 10.140543 12.347198
LeftLeg 28.801914 -0.000000 -0.000000
LeftFoot -16.766554 5.377714 -6.609628
LeftToeBase 6.160368 -0.000000 -0.000000
RightUpLeg 29.135542 -5.495271 -17.265486
RightLeg 22.931493 -0.000000 -0.000000
RightFoot -18.327389 9.811857 13.685192
RightToeBase -0.017220 -0.000000 0.000000
